FILE "King of Fighters Kyou, The (Japan) (Demo).bin" BINARY
  TRACK 01 MODE2/2352
    INDEX 01 00:00:00
  TRACK 02 AUDIO
    INDEX 00 64:21:57
    INDEX 01 64:24:57
  TRACK 03 AUDIO
    INDEX 00 65:52:35
    INDEX 01 65:54:35
  TRACK 04 AUDIO
    INDEX 00 67:28:10
    INDEX 01 67:31:10
REM LEADOUT 69:07:53
